<svg width="308" height="94" viewBox="0 0 308 94" fill="none" xmlns="http://www.w3.org/2000/svg">
<path d="M281.601 0.881836C295.96 0.881836 307.601 12.5224 307.601 26.8818V67.9658C307.601 82.3252 295.96 93.9658 281.601 93.9658H240.517C226.157 93.9658 214.517 82.3252 214.517 67.9658V26.8818C214.517 12.5224 226.157 0.881836 240.517 0.881836H281.601ZM251 48.542C246.062 48.542 242.059 52.5447 242.059 57.4824C242.059 62.4204 246.062 66.4238 251 66.4238C255.938 66.4236 259.941 62.4202 259.941 57.4824C259.94 52.5448 255.938 48.5422 251 48.542ZM271.118 28.4238C266.18 28.4238 262.177 32.4273 262.177 37.3652V57.4824C262.177 62.4204 266.18 66.4238 271.118 66.4238C276.056 66.4236 280.059 62.4202 280.059 57.4824V37.3652C280.059 32.4274 276.056 28.424 271.118 28.4238ZM242.059 37.3652C242.059 42.3024 246.063 46.3057 251 46.3057C255.937 46.3055 259.94 42.3023 259.941 37.3652C259.941 32.428 255.937 28.424 251 28.4238H242.059V37.3652Z" fill="#79D600"/>
<path d="M68.9743 72.7403C67.3503 72.7309 66.0716 72.4696 65.1383 71.9563C64.205 71.4429 63.6963 70.7336 63.6123 69.8283C63.603 69.7536 63.5983 69.6416 63.5983 69.4923C63.5983 69.0909 63.6543 68.6569 63.7663 68.1903C63.8783 67.7236 64.0136 67.3083 64.1723 66.9443L65.5163 67.5883C65.2456 68.4376 65.1243 69.0489 65.1523 69.4223C65.2176 69.7769 65.5863 70.0709 66.2583 70.3043C66.9396 70.5283 67.8683 70.6449 69.0443 70.6543C69.8843 70.6543 70.5983 70.6076 71.1863 70.5143C71.7836 70.4209 72.2316 70.3136 72.5303 70.1923C72.8383 70.0709 73.0016 69.9729 73.0203 69.8983C72.9456 69.4596 72.815 68.9743 72.6283 68.4423C72.451 67.9009 72.297 67.4763 72.1663 67.1683L73.6363 66.3563C73.8603 66.8603 74.0563 67.4343 74.2243 68.0783C74.3923 68.7129 74.4763 69.2729 74.4763 69.7583C74.4763 70.7289 73.9863 71.4663 73.0063 71.9703C72.0263 72.4649 70.729 72.7216 69.1143 72.7403H68.9883H68.9743ZM68.0783 74.2383C68.8996 74.1636 69.511 74.1123 69.9123 74.0843V75.8903L68.0783 76.0583V74.2383ZM75.4495 74.8543C76.7562 74.5743 77.7595 74.2476 78.4595 73.8743C79.1689 73.5103 79.6309 73.0669 79.8455 72.5443C79.5935 72.5816 79.3135 72.6003 79.0055 72.6003C78.3242 72.6003 77.7082 72.4836 77.1575 72.2503C76.6162 72.0076 76.2335 71.6483 76.0095 71.1723C75.8415 70.8083 75.7575 70.4069 75.7575 69.9683C75.7575 69.4176 75.8742 68.8716 76.1075 68.3303C76.3409 67.7796 76.6629 67.3316 77.0735 66.9863C77.4842 66.6316 77.9322 66.4543 78.4175 66.4543C78.9775 66.4543 79.4862 66.6969 79.9435 67.1823C80.4009 67.6676 80.7602 68.3023 81.0215 69.0863C81.2829 69.8703 81.4135 70.6869 81.4135 71.5363C81.4135 72.8429 80.9422 73.9443 79.9995 74.8403C79.0569 75.7363 77.7549 76.3429 76.0935 76.6603L75.4495 74.8543ZM77.2975 69.9963C77.4375 70.1829 77.6989 70.3276 78.0815 70.4303C78.4642 70.5236 78.8935 70.5703 79.3695 70.5703C79.5935 70.5703 79.7615 70.5656 79.8735 70.5563C79.7429 69.9216 79.5282 69.3896 79.2295 68.9603C78.9402 68.5309 78.6135 68.3163 78.2495 68.3163C78.0629 68.3163 77.8855 68.3863 77.7175 68.5263C77.5589 68.6663 77.4282 68.8389 77.3255 69.0443C77.2322 69.2496 77.1855 69.4409 77.1855 69.6183C77.1855 69.7676 77.2229 69.8936 77.2975 69.9963ZM89.815 76.6183C88.975 76.6183 88.2236 76.4596 87.561 76.1423C86.8983 75.8249 86.3756 75.3583 85.993 74.7423C85.6103 74.1263 85.419 73.3843 85.419 72.5163C85.419 71.9469 85.517 71.3309 85.713 70.6683C85.9183 69.9963 86.147 69.3989 86.399 68.8763L87.743 69.4923C87.5003 70.0429 87.3136 70.5283 87.183 70.9483C87.0523 71.3683 86.987 71.7976 86.987 72.2363C86.987 73.0109 87.2296 73.5849 87.715 73.9583C88.2003 74.3409 88.9003 74.5323 89.815 74.5323C90.319 74.5323 90.795 74.4763 91.243 74.3643C91.7003 74.2523 92.0876 74.1123 92.405 73.9443C92.7316 73.7763 92.9556 73.6083 93.077 73.4403C92.909 73.2816 92.5543 73.0529 92.013 72.7543C91.4716 72.4649 90.9116 72.2129 90.333 71.9983L90.767 70.0383C91.579 70.1969 92.2836 70.3136 92.881 70.3883C93.4783 70.4536 94.0663 70.4863 94.645 70.4863H94.869L94.981 71.5363L94.869 72.5723H94.645C94.505 72.5723 94.295 72.5629 94.015 72.5443C94.3603 72.8896 94.533 73.2256 94.533 73.5523C94.533 74.0189 94.323 74.4903 93.903 74.9663C93.483 75.4423 92.909 75.8343 92.181 76.1423C91.4623 76.4596 90.6736 76.6183 89.815 76.6183ZM106.153 72.5723C105.407 72.5723 104.795 72.2643 104.319 71.6483C104.095 71.9376 103.829 72.1616 103.521 72.3203C103.213 72.4789 102.887 72.5629 102.541 72.5723H102.499H102.457C102.028 72.5629 101.659 72.4556 101.351 72.2503C101.043 72.0449 100.805 71.7556 100.637 71.3823C100.115 72.1663 99.4941 72.5629 98.7754 72.5723H98.7054C98.3041 72.5723 97.9541 72.4649 97.6554 72.2503C97.3567 72.0356 97.1467 71.7509 97.0254 71.3963C96.7267 71.7789 96.3814 72.0729 95.9894 72.2783C95.6067 72.4743 95.1961 72.5723 94.7574 72.5723H94.7154L94.6034 71.5363L94.7154 70.4863H94.7854C95.0747 70.4863 95.3594 70.4256 95.6394 70.3043C95.9194 70.1736 96.1294 70.0149 96.2694 69.8283C96.4654 69.6043 96.6147 69.3523 96.7174 69.0723C96.8201 68.7923 96.9134 68.4936 96.9974 68.1763L98.4534 68.3303C98.4441 68.3769 98.3927 68.5636 98.2994 68.8903C98.2061 69.2076 98.1594 69.4969 98.1594 69.7583C98.1594 70.2436 98.3554 70.4863 98.7474 70.4863H98.7754C99.2607 70.4863 99.6341 70.2296 99.8954 69.7163C100.11 69.2869 100.264 68.7409 100.357 68.0783L101.813 68.1483C101.776 68.2976 101.739 68.5123 101.701 68.7923C101.673 69.0629 101.659 69.2869 101.659 69.4643C101.659 70.1456 101.939 70.4863 102.499 70.4863C102.723 70.4863 102.933 70.4443 103.129 70.3603C103.335 70.2763 103.493 70.1689 103.605 70.0383C103.521 69.6929 103.395 69.0629 103.227 68.1483L104.669 67.7563C104.781 68.3536 104.87 68.8109 104.935 69.1283C105.001 69.4456 105.061 69.6836 105.117 69.8423C105.192 70.0569 105.309 70.2203 105.467 70.3323C105.635 70.4349 105.864 70.4863 106.153 70.4863H106.237L106.349 71.5363L106.223 72.5723H106.153ZM106.075 70.4863H106.761C107.685 70.4863 108.339 70.4069 108.721 70.2483C109.104 70.0896 109.295 69.8469 109.295 69.5203C109.286 69.3149 109.179 68.9229 108.973 68.3443C108.768 67.7563 108.619 67.3643 108.525 67.1683L110.009 66.3563C110.196 66.7483 110.383 67.2709 110.569 67.9243C110.756 68.5683 110.849 69.1329 110.849 69.6183C110.84 70.5703 110.518 71.3029 109.883 71.8163C109.249 72.3203 108.311 72.5723 107.069 72.5723H106.089L106.075 70.4863ZM109.253 75.6943C108.469 75.7689 107.886 75.8203 107.503 75.8483L105.697 76.0023V74.4063C106.509 74.3316 107.088 74.2803 107.433 74.2523C107.797 74.2243 108.404 74.1729 109.253 74.0983V75.6943ZM111.885 74.8543C113.164 74.5743 114.158 74.2523 114.867 73.8883C115.576 73.5336 116.043 73.0996 116.267 72.5863C115.24 72.5676 114.41 72.4649 113.775 72.2783C113.14 72.0823 112.697 71.7136 112.445 71.1723C112.277 70.8083 112.193 70.4069 112.193 69.9683C112.193 69.4176 112.31 68.8716 112.543 68.3303C112.776 67.7796 113.098 67.3316 113.509 66.9863C113.92 66.6316 114.368 66.4543 114.853 66.4543C115.338 66.4543 115.786 66.6363 116.197 67.0003C116.608 67.3643 116.948 67.8543 117.219 68.4703C117.499 69.0863 117.686 69.7583 117.779 70.4863H118.367L118.479 71.5363L118.367 72.5723H117.737C117.504 73.6083 116.934 74.4809 116.029 75.1903C115.133 75.8996 113.966 76.3896 112.529 76.6603L111.885 74.8543ZM113.733 69.9963C113.864 70.1736 114.148 70.2996 114.587 70.3743C115.026 70.4396 115.595 70.4769 116.295 70.4863C116.164 69.8703 115.954 69.3569 115.665 68.9463C115.376 68.5263 115.049 68.3163 114.685 68.3163C114.498 68.3163 114.321 68.3863 114.153 68.5263C113.994 68.6569 113.868 68.8249 113.775 69.0303C113.682 69.2356 113.635 69.4316 113.635 69.6183C113.635 69.7769 113.668 69.9029 113.733 69.9963ZM118.189 70.4863H118.931C119.594 70.4863 120.074 70.4116 120.373 70.2623C120.672 70.1129 120.821 69.8889 120.821 69.5903C120.821 69.3943 120.723 69.0116 120.527 68.4423C120.331 67.8636 120.177 67.4389 120.065 67.1683L121.535 66.3563C121.712 66.7483 121.894 67.2756 122.081 67.9383C122.277 68.5916 122.375 69.1656 122.375 69.6603C122.375 70.6123 122.076 71.3356 121.479 71.8303C120.891 72.3249 120.042 72.5723 118.931 72.5723H118.189V70.4863ZM119.421 63.6823C119.86 63.6543 120.466 63.6029 121.241 63.5283V65.3483C120.802 65.3763 120.196 65.4276 119.421 65.5023V63.6823ZM132.918 72.5723C132.46 72.5723 132.064 72.4976 131.728 72.3483C131.401 72.1989 131.126 71.9656 130.902 71.6483C130.342 71.8163 129.8 71.9003 129.278 71.9003C128.438 71.9003 127.747 71.6996 127.206 71.2983C126.674 70.8876 126.408 70.3323 126.408 69.6323C126.408 68.8203 126.706 68.1343 127.304 67.5743C127.901 67.0143 128.704 66.5289 129.712 66.1183L129.614 65.2783L131.238 64.9283C131.452 66.9256 131.602 68.2416 131.686 68.8763C131.742 69.3429 131.807 69.6883 131.882 69.9123C131.966 70.1363 132.082 70.2903 132.232 70.3743C132.39 70.4489 132.619 70.4863 132.918 70.4863H133.17L133.282 71.5363L133.17 72.5723H132.918ZM127.948 69.2403C127.92 69.4363 128.018 69.6043 128.242 69.7443C128.475 69.8843 128.783 69.9543 129.166 69.9543C129.474 69.9543 129.824 69.8983 130.216 69.7863C130.188 69.6463 130.155 69.4363 130.118 69.1563L129.95 67.9383C129.418 68.1063 128.956 68.3163 128.564 68.5683C128.172 68.8109 127.966 69.0349 127.948 69.2403ZM133.038 70.4863H133.29C134.018 70.4863 134.615 70.0476 135.082 69.1703C135.548 68.3023 135.996 67.6536 136.426 67.2243C136.855 66.7856 137.336 66.5663 137.868 66.5663C138.372 66.5663 138.815 66.7296 139.198 67.0563C139.58 67.3736 139.87 67.7889 140.066 68.3023C140.271 68.8063 140.374 69.3383 140.374 69.8983C140.374 70.4396 140.271 70.9436 140.066 71.4103C139.86 71.8676 139.562 72.2129 139.17 72.4463C138.964 72.5769 138.712 72.6423 138.414 72.6423C137.695 72.6423 136.743 72.2689 135.558 71.5223C134.979 72.2223 134.214 72.5723 133.262 72.5723H132.996L133.038 70.4863ZM136.454 69.8703C136.892 70.1409 137.289 70.3556 137.644 70.5143C137.998 70.6636 138.269 70.7383 138.456 70.7383C138.549 70.7383 138.614 70.7243 138.652 70.6963C138.745 70.6309 138.815 70.5376 138.862 70.4163C138.918 70.2856 138.946 70.1363 138.946 69.9683C138.946 69.5949 138.843 69.2496 138.638 68.9323C138.432 68.6056 138.162 68.4423 137.826 68.4423C137.406 68.4423 136.948 68.9183 136.454 69.8703ZM144.833 72.5723C143.806 72.5723 143.064 72.2783 142.607 71.6903C142.159 71.1023 141.935 70.2063 141.935 69.0023C141.926 67.8543 141.888 66.6923 141.823 65.5163C141.767 64.3309 141.683 63.3556 141.571 62.5903L143.307 62.2123C143.4 62.8936 143.475 63.8176 143.531 64.9843C143.587 66.1416 143.615 67.2149 143.615 68.2043V68.7363C143.606 69.2123 143.629 69.5716 143.685 69.8143C143.741 70.0569 143.853 70.2296 144.021 70.3323C144.198 70.4349 144.469 70.4863 144.833 70.4863H144.903L145.015 71.5363L144.903 72.5723H144.833ZM144.767 70.4863H145.509C146.172 70.4863 146.652 70.4116 146.951 70.2623C147.25 70.1129 147.399 69.8889 147.399 69.5903C147.399 69.3943 147.301 69.0116 147.105 68.4423C146.909 67.8636 146.755 67.4389 146.643 67.1683L148.113 66.3563C148.29 66.7483 148.472 67.2756 148.659 67.9383C148.855 68.5916 148.953 69.1656 148.953 69.6603C148.953 70.6123 148.654 71.3356 148.057 71.8303C147.469 72.3249 146.62 72.5723 145.509 72.5723H144.767V70.4863ZM145.999 63.6823C146.438 63.6543 147.044 63.6029 147.819 63.5283V65.3483C147.38 65.3763 146.774 65.4276 145.999 65.5023V63.6823ZM153.952 72.5723C153.653 72.5723 153.378 72.5163 153.126 72.4043C153.07 73.2816 152.687 74.0889 151.978 74.8263C151.268 75.5729 150.33 76.1843 149.164 76.6603L148.31 74.8963C148.926 74.6443 149.49 74.3503 150.004 74.0143C150.517 73.6876 150.918 73.3609 151.208 73.0343C151.506 72.7076 151.656 72.4276 151.656 72.1943C151.656 71.8116 151.408 70.7709 150.914 69.0723L150.844 68.7923L152.412 68.1763C152.514 68.4656 152.636 68.8809 152.776 69.4223C152.897 69.8049 153.046 70.0803 153.224 70.2483C153.41 70.4069 153.653 70.4863 153.952 70.4863H154.092L154.204 71.5363L154.092 72.5723H153.952ZM153.955 70.4863H154.697C155.359 70.4863 155.84 70.4116 156.139 70.2623C156.437 70.1129 156.587 69.8889 156.587 69.5903C156.587 69.3943 156.489 69.0116 156.293 68.4423C156.097 67.8636 155.943 67.4389 155.831 67.1683L157.301 66.3563C157.478 66.7483 157.66 67.2756 157.847 67.9383C158.043 68.5916 158.141 69.1656 158.141 69.6603C158.141 70.6123 157.842 71.3356 157.245 71.8303C156.657 72.3249 155.807 72.5723 154.697 72.5723H153.955V70.4863ZM154.823 74.1263C155.644 74.0516 156.255 74.0003 156.657 73.9723V75.7783L154.823 75.9463V74.1263ZM175.767 72.5723C175.338 72.5629 174.965 72.4556 174.647 72.2503C174.339 72.0449 174.101 71.7556 173.933 71.3823C173.401 72.1756 172.776 72.5723 172.057 72.5723H172.043H172.015C171.773 72.5723 171.525 72.5163 171.273 72.4043C171.236 73.1789 171.017 73.8883 170.615 74.5323C170.214 75.1856 169.663 75.7036 168.963 76.0863C168.263 76.4689 167.465 76.6603 166.569 76.6603C165.701 76.6603 164.936 76.4923 164.273 76.1563C163.611 75.8296 163.093 75.3583 162.719 74.7423C162.355 74.1263 162.173 73.4029 162.173 72.5723C162.173 72.4043 162.178 72.2736 162.187 72.1803C162.215 71.6483 162.323 71.0929 162.509 70.5143C162.705 69.9356 162.92 69.4036 163.153 68.9183L164.497 69.5343C164.255 70.0943 164.068 70.5889 163.937 71.0183C163.807 71.4383 163.741 71.8676 163.741 72.3063C163.741 73.0716 163.984 73.6409 164.469 74.0143C164.955 74.3969 165.655 74.5883 166.569 74.5883C167.223 74.5883 167.792 74.4716 168.277 74.2383C168.772 74.0143 169.145 73.7156 169.397 73.3423C169.659 72.9783 169.789 72.5909 169.789 72.1803C169.789 71.6296 169.491 70.5096 168.893 68.8203L170.391 68.0363C170.541 68.4189 170.671 68.8063 170.783 69.1983C170.895 69.5249 170.998 69.7769 171.091 69.9543C171.185 70.1223 171.311 70.2529 171.469 70.3463C171.628 70.4396 171.843 70.4863 172.113 70.4863C172.571 70.4769 172.93 70.2203 173.191 69.7163C173.406 69.2869 173.56 68.7409 173.653 68.0783L175.109 68.1483C175.072 68.2976 175.035 68.5123 174.997 68.7923C174.969 69.0629 174.955 69.2869 174.955 69.4643C174.955 70.1456 175.235 70.4863 175.795 70.4863H175.809C176.089 70.4863 176.304 70.4069 176.453 70.2483C176.612 70.0896 176.691 69.8843 176.691 69.6323C176.691 69.3803 176.593 68.9789 176.397 68.4283C176.211 67.8776 176.052 67.4576 175.921 67.1683L177.363 66.3843C177.541 66.7669 177.727 67.2943 177.923 67.9663C178.119 68.6289 178.217 69.2123 178.217 69.7163C178.217 70.2296 178.115 70.7056 177.909 71.1443C177.713 71.5736 177.433 71.9189 177.069 72.1803C176.705 72.4416 176.295 72.5723 175.837 72.5723H175.767ZM172.113 64.7603C172.981 64.6856 173.658 64.6249 174.143 64.5783L176.257 64.4103V65.9923C175.753 66.0389 175.058 66.0996 174.171 66.1743V66.1603L172.113 66.3563V64.7603ZM174.045 62.9123C174.223 62.9029 174.489 62.8796 174.843 62.8423V64.3823L173.275 64.5223V62.9823L174.045 62.9123ZM177.8 74.8963C178.416 74.6443 178.981 74.3503 179.494 74.0143C180.007 73.6876 180.409 73.3609 180.698 73.0343C180.997 72.7076 181.146 72.4276 181.146 72.1943C181.146 71.8116 180.899 70.7709 180.404 69.0723L180.334 68.7923L181.902 68.1763C182.126 68.8203 182.303 69.5109 182.434 70.2483C182.565 70.9763 182.63 71.6249 182.63 72.1943C182.63 73.1089 182.271 73.9536 181.552 74.7283C180.833 75.5123 179.867 76.1563 178.654 76.6603L177.8 74.8963ZM179.97 64.7883C180.147 64.7789 180.446 64.7556 180.866 64.7183L181.804 64.6343V66.4403L179.97 66.6083V64.7883ZM183.662 74.8543C184.941 74.5743 185.935 74.2523 186.644 73.8883C187.354 73.5336 187.82 73.0996 188.044 72.5863C187.018 72.5676 186.187 72.4649 185.552 72.2783C184.918 72.0823 184.474 71.7136 184.222 71.1723C184.054 70.8083 183.97 70.4069 183.97 69.9683C183.97 69.4176 184.087 68.8716 184.32 68.3303C184.554 67.7796 184.876 67.3316 185.286 66.9863C185.697 66.6316 186.145 66.4543 186.63 66.4543C187.116 66.4543 187.564 66.6363 187.974 67.0003C188.385 67.3643 188.726 67.8543 188.996 68.4703C189.276 69.0863 189.463 69.7583 189.556 70.4863H190.144L190.256 71.5363L190.144 72.5723H189.514C189.281 73.6083 188.712 74.4809 187.806 75.1903C186.91 75.8996 185.744 76.3896 184.306 76.6603L183.662 74.8543ZM185.51 69.9963C185.641 70.1736 185.926 70.2996 186.364 70.3743C186.803 70.4396 187.372 70.4769 188.072 70.4863C187.942 69.8703 187.732 69.3569 187.442 68.9463C187.153 68.5263 186.826 68.3163 186.462 68.3163C186.276 68.3163 186.098 68.3863 185.93 68.5263C185.772 68.6569 185.646 68.8249 185.552 69.0303C185.459 69.2356 185.412 69.4316 185.412 69.6183C185.412 69.7769 185.445 69.9029 185.51 69.9963ZM190.008 70.4863H190.26C190.988 70.4863 191.586 70.0476 192.052 69.1703C192.519 68.3023 192.967 67.6536 193.396 67.2243C193.826 66.7856 194.306 66.5663 194.838 66.5663C195.342 66.5663 195.786 66.7296 196.168 67.0563C196.551 67.3736 196.84 67.7889 197.036 68.3023C197.242 68.8063 197.344 69.3383 197.344 69.8983C197.344 70.4396 197.242 70.9436 197.036 71.4103C196.831 71.8676 196.532 72.2129 196.14 72.4463C195.935 72.5769 195.683 72.6423 195.384 72.6423C194.666 72.6423 193.714 72.2689 192.528 71.5223C191.95 72.2223 191.184 72.5723 190.232 72.5723H189.966L190.008 70.4863ZM193.424 69.8703C193.863 70.1409 194.26 70.3556 194.614 70.5143C194.969 70.6636 195.24 70.7383 195.426 70.7383C195.52 70.7383 195.585 70.7243 195.622 70.6963C195.716 70.6309 195.786 70.5376 195.832 70.4163C195.888 70.2856 195.916 70.1363 195.916 69.9683C195.916 69.5949 195.814 69.2496 195.608 68.9323C195.403 68.6056 195.132 68.4423 194.796 68.4423C194.376 68.4423 193.919 68.9183 193.424 69.8703ZM198.78 72.4883C198.836 72.0216 198.864 71.2516 198.864 70.1783C198.864 69.0676 198.826 67.8869 198.752 66.6363C198.686 65.3856 198.612 64.4616 198.528 63.8643L200.278 63.4723C200.343 64.0603 200.404 64.9423 200.46 66.1183C200.525 67.2943 200.558 68.4469 200.558 69.5763C200.558 70.7803 200.516 71.8116 200.432 72.6703L198.78 72.4883ZM197.016 62.5063C197.174 62.1236 197.38 61.8203 197.632 61.5963C197.874 61.3629 198.136 61.2323 198.416 61.2043L198.57 61.1903C198.728 61.1903 198.873 61.2136 199.004 61.2603C199.134 61.2976 199.279 61.3583 199.438 61.4423C199.736 61.5823 199.979 61.6523 200.166 61.6523C200.324 61.6523 200.483 61.6056 200.642 61.5123C200.81 61.4096 200.945 61.2789 201.048 61.1203L201.678 61.6523C201.472 61.9696 201.239 62.2123 200.978 62.3803C200.716 62.5483 200.446 62.6323 200.166 62.6323C200.007 62.6323 199.858 62.6136 199.718 62.5763C199.578 62.5296 199.424 62.4643 199.256 62.3803C199.144 62.3336 199.027 62.2916 198.906 62.2543C198.784 62.2076 198.672 62.1843 198.57 62.1843C198.392 62.1843 198.224 62.2496 198.066 62.3803C197.916 62.5109 197.795 62.6883 197.702 62.9123L197.016 62.5063Z" fill="#818181"/>
<path d="M72.0962 43.6143C70.5327 43.6143 69.0871 43.2311 67.7594 42.465C66.4441 41.6864 65.3956 40.6359 64.6138 39.3136C63.8445 37.9912 63.4599 36.5515 63.4599 34.9943V34.0358L69.3229 32.5899V34.9943C69.3229 35.501 69.4469 35.9706 69.6952 36.4032C69.9433 36.8234 70.2783 37.157 70.7002 37.4041C71.1346 37.6513 71.5999 37.775 72.0962 37.775H121.433H127.985H141.088C141.585 37.775 142.044 37.6513 142.466 37.4041C142.887 37.157 143.223 36.8234 143.471 36.4032C143.719 35.9706 143.843 35.501 143.843 34.9943C143.843 34.4999 143.719 34.0427 143.471 33.6226C143.223 33.2023 142.887 32.8687 142.466 32.6215C142.044 32.3744 141.585 32.2508 141.088 32.2508H120.573C118.53 32.2508 116.873 30.5942 116.873 28.5507V28.5507C116.873 27.2272 117.58 26.0044 118.727 25.3441L132.843 17.2168L135.821 21.6473L127.575 26.4115H141.088C142.639 26.4115 144.079 26.8007 145.406 27.5793C146.734 28.3455 147.789 29.3898 148.571 30.7121C149.352 32.0221 149.743 33.4495 149.743 34.9943C149.743 36.5515 149.352 37.9912 148.571 39.3136C147.789 40.6359 146.734 41.6864 145.406 42.465C144.091 43.2311 142.652 43.6143 141.088 43.6143H127.985H121.433H72.0962ZM154.415 48.4711L161.786 43.6143H160.278C159.124 43.602 157.927 43.225 156.686 42.4834C155.457 41.742 154.434 40.7162 153.615 39.4063C152.796 38.0962 152.386 36.6442 152.386 35.05C152.386 33.4927 152.771 32.053 153.54 30.7306C154.322 29.4084 155.37 28.364 156.686 27.5979C158.013 26.8192 159.459 26.43 161.022 26.43H169.696V45.3753L157.672 53.3465L154.415 48.4711ZM163.814 37.775V32.2323H161.022C160.514 32.2323 160.048 32.362 159.626 32.6215C159.205 32.8687 158.87 33.2023 158.621 33.6226C158.373 34.0427 158.249 34.4999 158.249 34.9943C158.249 35.501 158.373 35.9706 158.621 36.4032C158.87 36.8234 159.205 37.157 159.626 37.4041C160.048 37.6513 160.514 37.775 161.022 37.775H163.814ZM167.779 37.775H171.576L172.618 40.7039L171.576 43.6143H167.779V37.775ZM170.552 40.7039L171.595 37.775H174.256C173.747 36.9592 173.493 36.0324 173.493 34.9943C173.493 34.0056 173.747 33.085 174.256 32.2323H173.474V26.4115H192.98C194.544 26.4115 195.983 26.7946 197.299 27.5608C198.626 28.327 199.675 29.3713 200.444 30.6936C201.226 32.0036 201.617 33.4371 201.617 34.9943C201.617 36.5515 201.226 37.9912 200.444 39.3136C199.675 40.6359 198.626 41.6864 197.299 42.465C195.983 43.2311 194.544 43.6143 192.98 43.6143H171.595L170.552 40.7039ZM182.148 37.775C182.644 37.775 183.103 37.6513 183.525 37.4041C183.96 37.157 184.301 36.8234 184.549 36.4032C184.797 35.9706 184.921 35.501 184.921 34.9943C184.921 34.4999 184.797 34.0427 184.549 33.6226C184.301 33.2023 183.96 32.8687 183.525 32.6215C183.103 32.362 182.644 32.2323 182.148 32.2323C181.651 32.2323 181.186 32.362 180.752 32.6215C180.33 32.8687 179.995 33.2023 179.747 33.6226C179.499 34.0427 179.375 34.4999 179.375 34.9943C179.375 35.501 179.499 35.9706 179.747 36.4032C179.995 36.8234 180.33 37.157 180.752 37.4041C181.186 37.6513 181.651 37.775 182.148 37.775ZM192.98 37.775C193.477 37.775 193.936 37.6513 194.357 37.4041C194.792 37.157 195.133 36.8234 195.381 36.4032C195.642 35.9706 195.773 35.501 195.773 34.9943C195.773 34.4999 195.642 34.0427 195.381 33.6226C195.133 33.2023 194.792 32.8687 194.357 32.6215C193.936 32.362 193.477 32.2323 192.98 32.2323H190.058C190.542 33.1591 190.784 34.0798 190.784 34.9943C190.784 35.9706 190.542 36.8975 190.058 37.775H192.98Z" fill="#818181"/>
</svg>
